<svg width="25" height="25" viewBox="0 0 25 25" fill="none" xmlns="http://www.w3.org/2000/svg">
<g clip-path="url(#clip0_263_1805)">
<path d="M12.9868 0.26709C10.6134 0.26709 8.29337 0.970878 6.31998 2.28945C4.34659 3.60803 2.80852 5.48218 1.90027 7.67489C0.992016 9.8676 0.754376 12.2804 1.2174 14.6082C1.68042 16.9359 2.82331 19.0741 4.50154 20.7524C6.17977 22.4306 8.31797 23.5735 10.6457 24.0365C12.9735 24.4995 15.3863 24.2619 17.579 23.3536C19.7717 22.4454 21.6459 20.9073 22.9645 18.9339C24.283 16.9605 24.9868 14.6405 24.9868 12.2671C24.9834 9.08555 23.718 6.0353 21.4683 3.78561C19.2186 1.53592 16.1684 0.270531 12.9868 0.26709ZM12.9868 22.2671C11.009 22.2671 9.07561 21.6806 7.43112 20.5818C5.78663 19.483 4.5049 17.9212 3.74803 16.0939C2.99115 14.2667 2.79312 12.256 3.17897 10.3162C3.56482 8.37638 4.51723 6.59455 5.91575 5.19602C7.31428 3.7975 9.09611 2.84509 11.0359 2.45924C12.9757 2.07338 14.9864 2.27142 16.8137 3.02829C18.6409 3.78517 20.2027 5.0669 21.3015 6.71139C22.4003 8.35588 22.9868 10.2893 22.9868 12.2671C22.9839 14.9184 21.9294 17.4602 20.0547 19.3349C18.1799 21.2097 15.6381 22.2642 12.9868 22.2671Z" fill="#034542"/>
<path d="M12.9873 10.2671H11.9873C11.7221 10.2671 11.4677 10.3724 11.2802 10.56C11.0927 10.7475 10.9873 11.0019 10.9873 11.2671C10.9873 11.5323 11.0927 11.7867 11.2802 11.9742C11.4677 12.1617 11.7221 12.2671 11.9873 12.2671H12.9873V18.2671C12.9873 18.5323 13.0927 18.7867 13.2802 18.9742C13.4677 19.1617 13.7221 19.2671 13.9873 19.2671C14.2525 19.2671 14.5069 19.1617 14.6944 18.9742C14.8819 18.7867 14.9873 18.5323 14.9873 18.2671V12.2671C14.9873 11.7367 14.7766 11.2279 14.4015 10.8529C14.0264 10.4778 13.5177 10.2671 12.9873 10.2671Z" fill="#034542"/>
<path d="M12.9868 8.26709C13.8152 8.26709 14.4868 7.59552 14.4868 6.76709C14.4868 5.93866 13.8152 5.26709 12.9868 5.26709C12.1584 5.26709 11.4868 5.93866 11.4868 6.76709C11.4868 7.59552 12.1584 8.26709 12.9868 8.26709Z" fill="#034542"/>
</g>
<defs>
<clipPath id="clip0_263_1805">
<rect width="24" height="24" fill="white" transform="translate(0.987793 0.26709)"/>
</clipPath>
</defs>
</svg>
