<svg width="23" height="25" viewBox="0 0 23 25" fill="none" xmlns="http://www.w3.org/2000/svg">
<path d="M22.5428 14.0093L20.6428 7.17335C20.0859 5.17068 18.8755 3.41163 17.2041 2.17582C15.5327 0.939999 13.4962 0.298333 11.4182 0.352813C9.34029 0.407293 7.34019 1.15479 5.73584 2.47649C4.13149 3.7982 3.01498 5.61825 2.56377 7.64735L1.09277 14.2623C0.93029 14.9933 0.934047 15.7514 1.10377 16.4807C1.27349 17.21 1.60484 17.8918 2.07336 18.4759C2.54187 19.06 3.1356 19.5314 3.81069 19.8553C4.48578 20.1792 5.225 20.3474 5.97377 20.3473H7.08777C7.31729 21.4776 7.9305 22.4938 8.82352 23.2237C9.71653 23.9536 10.8344 24.3524 11.9878 24.3524C13.1411 24.3524 14.259 23.9536 15.152 23.2237C16.045 22.4938 16.6583 21.4776 16.8878 20.3473H17.7258C18.4966 20.3474 19.257 20.1692 19.9475 19.8268C20.6381 19.4843 21.2401 18.9868 21.7066 18.3732C22.1731 17.7596 22.4914 17.0464 22.6366 16.2894C22.7818 15.5324 22.749 14.752 22.5428 14.0093ZM11.9878 22.3473C11.3695 22.3448 10.7671 22.1513 10.2631 21.7933C9.75901 21.4353 9.37786 20.9303 9.17177 20.3473H14.8038C14.5977 20.9303 14.2165 21.4353 13.7125 21.7933C13.2084 22.1513 12.606 22.3448 11.9878 22.3473ZM20.1138 17.1623C19.8351 17.532 19.4741 17.8316 19.0594 18.0373C18.6447 18.243 18.1877 18.3492 17.7248 18.3473H5.97377C5.52456 18.3473 5.0811 18.2463 4.67612 18.0519C4.27114 17.8575 3.91498 17.5747 3.63394 17.2242C3.35289 16.8738 3.15414 16.4647 3.05234 16.0272C2.95054 15.5897 2.9483 15.1349 3.04577 14.6963L4.51577 8.08035C4.87013 6.48655 5.74708 5.05695 7.00723 4.0188C8.26738 2.98064 9.8384 2.39352 11.4705 2.35076C13.1027 2.308 14.7023 2.81206 16.0151 3.78282C17.3279 4.75357 18.2785 6.13529 18.7158 7.70835L20.6158 14.5443C20.7413 14.9897 20.7613 15.4582 20.6742 15.9127C20.587 16.3671 20.3952 16.795 20.1138 17.1623Z" fill="#034542"/>
</svg>
