<svg width="25" height="25" viewBox="0 0 25 25" fill="none" xmlns="http://www.w3.org/2000/svg">
<path fill-rule="evenodd" clip-rule="evenodd" d="M17.3223 3.05713H8.65328C5.63228 3.05713 3.73828 5.19613 3.73828 8.22313V16.3911C3.73828 19.4181 5.62328 21.5571 8.65328 21.5571H17.3213C20.3523 21.5571 22.2383 19.4181 22.2383 16.3911V8.22313C22.2383 5.19613 20.3523 3.05713 17.3223 3.05713Z" stroke="#034542" stroke-width="2" stroke-linecap="round" stroke-linejoin="round"/>
<path fill-rule="evenodd" clip-rule="evenodd" d="M11.6801 12.3071C11.6801 13.3291 10.8511 14.1591 9.82805 14.1591C8.80605 14.1591 7.97705 13.3291 7.97705 12.3071C7.97705 11.2851 8.80605 10.4551 9.82805 10.4551C10.8511 10.4551 11.6801 11.2851 11.6801 12.3071Z" stroke="#034542" stroke-width="2" stroke-linecap="round" stroke-linejoin="round"/>
<path d="M11.6802 12.3071H17.9982V14.1591" stroke="#034542" stroke-width="2" stroke-linecap="round" stroke-linejoin="round"/>
<path d="M15.1694 14.1586V12.3066" stroke="#034542" stroke-width="1.5" stroke-linecap="round" stroke-linejoin="round"/>
</svg>
