<svg width="25" height="26" viewBox="0 0 25 26" fill="none" xmlns="http://www.w3.org/2000/svg">
<path fill-rule="evenodd" clip-rule="evenodd" d="M12.6596 9.95088C12.0333 8.86587 13.9917 6.56377 17.0337 4.80703C20.0743 3.05171 23.0482 2.50635 23.6745 3.59136C24.021 4.19209 24.3675 4.79282 24.7154 5.39497C25.3417 6.47856 23.3833 8.78066 20.3413 10.5374C17.2993 12.2927 14.3269 12.8381 13.7006 11.7545C13.3541 11.1523 13.0061 10.5516 12.6596 9.95088Z" fill="#FFCE3F"/>
<path fill-rule="evenodd" clip-rule="evenodd" d="M17.0337 4.80703C20.0743 3.05171 23.0482 2.50635 23.6745 3.59136C24.3008 4.67495 22.3423 6.97705 19.3003 8.73379C16.2583 10.4905 13.2859 11.0345 12.6596 9.95088C12.0333 8.86587 13.9917 6.56377 17.0337 4.80703Z" fill="#F5BC16"/>
<path fill-rule="evenodd" clip-rule="evenodd" d="M17.5638 5.72446C19.9838 4.32842 22.2149 3.66382 22.5486 4.24038C22.8824 4.81841 21.191 6.41894 18.7709 7.81636C16.351 9.21382 14.1185 9.87846 13.7861 9.30044C13.4524 8.72246 15.1438 7.12192 17.5638 5.72446Z" fill="#FFCE3F"/>
<path d="M23.4473 6.63623L24.0011 7.59624C24.1332 7.43433 24.2525 7.27529 24.3547 7.11904L23.9173 6.36353L23.4473 6.63623ZM22.9729 8.65855C22.8357 8.78109 22.696 8.90089 22.554 9.01787L22.0256 8.10186L22.4957 7.83203L22.9729 8.65855ZM21.405 9.87139C21.2553 9.97341 21.1038 10.0728 20.9506 10.1696L20.4464 9.29624L20.9165 9.02642L21.405 9.87139ZM19.7193 10.8797C19.556 10.9663 19.3941 11.0473 19.2336 11.1268L18.7436 10.2804L19.2151 10.0077L19.7193 10.8797ZM17.9199 11.6935C17.7476 11.7585 17.5738 11.8196 17.3987 11.8767L16.9201 11.0501L17.3916 10.7789L17.9199 11.6935ZM15.9644 12.2359C15.7584 12.27 15.561 12.2928 15.375 12.3041L14.939 11.5486L15.4104 11.2759L15.9644 12.2359Z" fill="#F5BC16"/>
<path fill-rule="evenodd" clip-rule="evenodd" d="M12.1969 14.6587C12.8231 13.5751 10.8647 11.2716 7.82275 9.51631C4.78217 7.75957 1.80829 7.21562 1.18203 8.29922C0.835492 8.89995 0.489008 9.5021 0.141059 10.1028C-0.48526 11.1864 1.47319 13.4899 4.51518 15.2453C7.55717 17.002 10.5296 17.5459 11.1559 16.4623C11.5038 15.8617 11.8503 15.2595 12.1969 14.6587Z" fill="#FFCE3F"/>
<path fill-rule="evenodd" clip-rule="evenodd" d="M7.8228 9.51631C4.78223 7.75957 1.80835 7.21562 1.18208 8.29922C0.557228 9.38423 2.51563 11.6863 5.5562 13.4416C8.5982 15.1984 11.5721 15.7423 12.1969 14.6587C12.8232 13.5751 10.8648 11.2716 7.8228 9.51631Z" fill="#F5BC16"/>
<path fill-rule="evenodd" clip-rule="evenodd" d="M7.29293 10.4337C4.87438 9.03628 2.64186 8.37168 2.30812 8.94966C1.97438 9.52627 3.66578 11.1282 6.08576 12.5242C8.50573 13.9217 10.7382 14.5863 11.072 14.0083C11.4043 13.4317 9.7129 11.8312 7.29293 10.4337Z" fill="#FFCE3F"/>
<path d="M1.40898 11.3441L0.855127 12.3041C0.723047 12.1422 0.605176 11.9832 0.50293 11.8283L0.938916 11.0714L1.40898 11.3441ZM1.8833 13.3664C2.02052 13.489 2.1602 13.6088 2.30225 13.7257L2.83052 12.8111L2.36045 12.5399L1.8833 13.3664ZM3.45117 14.5807C3.60153 14.682 3.7535 14.781 3.90703 14.8775L4.41118 14.0041L3.9397 13.7343L3.45117 14.5807ZM5.13691 15.589C5.29801 15.6734 5.46042 15.7553 5.62407 15.8347L6.1126 14.9882L5.64111 14.7156L5.13691 15.589ZM6.93769 16.4013C7.10985 16.4668 7.28364 16.5279 7.45889 16.5845L7.93608 15.758L7.4646 15.4882L6.93769 16.4013ZM8.89184 16.9452C9.09922 16.9779 9.29517 17.0006 9.4812 17.012L9.91719 16.2564L9.44712 15.9838L8.89184 16.9452Z" fill="#F5BC16"/>
<path fill-rule="evenodd" clip-rule="evenodd" d="M11.7578 20.605C11.1329 19.5214 13.09 17.2193 16.132 15.4626C19.1739 13.7073 22.1464 13.1619 22.7727 14.2455C23.1199 14.8466 23.4669 15.4478 23.8136 16.0491C24.44 17.1341 22.4815 19.4362 19.4409 21.193C16.399 22.9483 13.4251 23.4937 12.7988 22.4086C12.4521 21.8073 12.1051 21.2061 11.7578 20.605Z" fill="#FFCE3F"/>
<path fill-rule="evenodd" clip-rule="evenodd" d="M16.132 15.4626C19.1739 13.7072 22.1464 13.1619 22.7727 14.2455C23.399 15.3305 21.4406 17.6326 18.3986 19.3893C15.358 21.1446 12.3842 21.69 11.7578 20.605C11.1329 19.5214 13.09 17.2193 16.132 15.4626Z" fill="#F5BC16"/>
<path fill-rule="evenodd" clip-rule="evenodd" d="M16.662 16.38C19.0819 14.9826 21.3145 14.3193 21.6468 14.8959C21.9805 15.4739 20.2891 17.0745 17.8691 18.4719C15.4491 19.868 13.218 20.5326 12.8843 19.956C12.5506 19.378 14.242 17.7774 16.662 16.38Z" fill="#FFCE3F"/>
<path d="M22.5455 17.2917L23.1007 18.2518C23.226 18.0987 23.3436 17.9395 23.4529 17.7746L23.0169 17.0191L22.5455 17.2917ZM22.0725 19.3126C21.9351 19.4356 21.795 19.5554 21.6521 19.672L21.1238 18.7574L21.5953 18.4875L22.0725 19.3126ZM20.5046 20.5269C20.3542 20.6286 20.2022 20.728 20.0488 20.8251L19.5446 19.9518L20.0161 19.6805L20.5046 20.5269ZM18.8175 21.5352C18.6569 21.6196 18.495 21.7015 18.3318 21.7809L17.8432 20.9345L18.3133 20.6618L18.8175 21.5352ZM17.0181 22.349C16.8454 22.4129 16.6717 22.474 16.4969 22.5322L16.0197 21.7042L16.4898 21.4344L17.0181 22.349ZM15.064 22.8915C14.8566 22.9256 14.6592 22.9469 14.4746 22.9583L14.0386 22.2027L14.5086 21.9301L15.064 22.8915Z" fill="#F5BC16"/>
<path d="M10.5379 5.57817V6.38628H11.346V7.08784H10.5379V7.89731H9.83638V7.08784H9.02685V6.38628H9.83638V5.57817H10.5379ZM8.03843 18.5401V19.3482H8.8479V20.0497H8.03843V20.8592H7.33686V20.0497H6.52881V19.3482H7.33686V18.5401H8.03843ZM24.1659 10.6141V11.4222H24.9754V12.1238H24.1659V12.9333H23.4643V12.1238H22.6562V11.4222H23.4643V10.6141H24.1659Z" fill="#FFCE3F"/>
</svg>
