<svg width="113" height="70" viewBox="0 0 113 70" fill="none" xmlns="http://www.w3.org/2000/svg">
<g filter="url(#filter0_d_886_3935)">
<g filter="url(#filter1_d_886_3935)">
<circle cx="43.162" cy="33.1415" r="22.9757" fill="#CCF0E7"/>
<circle cx="43.1615" cy="33.1418" r="19.6435" fill="#00B585" stroke="#FAFAFA" stroke-width="2.06928"/>
<g clip-path="url(#clip0_886_3935)">
<path fill-rule="evenodd" clip-rule="evenodd" d="M44.1864 24.0327C44.2209 24.0106 44.2594 23.9954 44.2997 23.9882C44.34 23.981 44.3813 23.9817 44.4214 23.9904C44.4614 23.9992 44.4993 24.0157 44.5329 24.0391C44.5665 24.0624 44.5952 24.0922 44.6173 24.1267C44.6394 24.1611 44.6546 24.1996 44.6618 24.2399C44.6691 24.2802 44.6683 24.3216 44.6596 24.3616C44.6508 24.4016 44.6343 24.4395 44.6109 24.4731C44.5876 24.5068 44.5578 24.5354 44.5233 24.5576L43.8624 24.9812C44.5269 25.1211 45.173 25.3374 45.7878 25.6258C46.5898 26.0021 47.3475 26.5049 48.0307 27.1352C49.8275 28.7927 50.7823 31.0217 50.8736 33.2858C50.9649 35.5496 50.1928 37.8478 48.5357 39.6442C46.8783 41.4409 44.6492 42.3957 42.3851 42.4869C40.1214 42.5782 37.8231 41.8062 36.0268 40.149C34.2301 38.4917 33.2753 36.2626 33.184 33.9985C33.0927 31.7349 33.8648 29.4365 35.5219 27.6403C36.2473 26.8538 37.0839 26.2282 37.9862 25.7654C38.9123 25.2904 39.915 24.9826 40.9481 24.856C41.0301 24.8465 41.1125 24.8698 41.1774 24.9208C41.2422 24.9719 41.2842 25.0465 41.2942 25.1285C41.3042 25.2104 41.2814 25.2929 41.2307 25.3581C41.1801 25.4232 41.1057 25.4657 41.0238 25.4762C40.0704 25.593 39.1365 25.8747 38.2693 26.3196C37.4336 26.7483 36.6569 27.3298 35.9808 28.0626C34.4398 29.7332 33.7217 31.87 33.8065 33.9741C33.8914 36.0778 34.7789 38.1494 36.4491 39.6901C38.1197 41.2312 40.2565 41.9493 42.3607 41.8644C44.4644 41.7797 46.536 40.8921 48.0767 39.2219C49.6178 37.5512 50.3359 35.4145 50.251 33.3103C50.1662 31.2066 49.2786 29.135 47.6084 27.5942C46.9707 27.006 46.2668 26.5383 45.5241 26.1898C44.9715 25.9306 44.3915 25.7341 43.7952 25.6039L44.2802 26.1765C44.3068 26.2077 44.327 26.2439 44.3396 26.283C44.3523 26.3221 44.357 26.3632 44.3537 26.4042C44.3504 26.4451 44.339 26.4849 44.3202 26.5215C44.3015 26.558 44.2757 26.5904 44.2443 26.6169C44.213 26.6435 44.1767 26.6635 44.1376 26.676C44.0985 26.6884 44.0573 26.6931 44.0164 26.6896C43.9754 26.6861 43.9356 26.6745 43.8992 26.6556C43.8628 26.6367 43.8304 26.6108 43.804 26.5793L42.7755 25.3648C42.7456 25.3311 42.7234 25.2913 42.7104 25.2483C42.6973 25.2052 42.6938 25.1598 42.7 25.1152C42.7061 25.0706 42.7219 25.0278 42.7461 24.9899C42.7704 24.952 42.8026 24.9198 42.8405 24.8955L44.1864 24.0327Z" fill="#034542"/>
<path fill-rule="evenodd" clip-rule="evenodd" d="M42.0289 39.7427C45.3889 39.7427 48.1291 37.0024 48.1291 33.6425C48.1291 30.2825 45.3888 27.5422 42.0289 27.5422C38.6691 27.5422 35.9287 30.2825 35.9287 33.6425C35.9287 37.0024 38.669 39.7427 42.0289 39.7427Z" fill="#034542"/>
<path fill-rule="evenodd" clip-rule="evenodd" d="M42.0289 38.3221C44.6064 38.3221 46.7086 36.2199 46.7086 33.6424C46.7086 31.065 44.6064 28.9628 42.0289 28.9628C39.4515 28.9628 37.3492 31.065 37.3492 33.6424C37.3492 36.2199 39.4514 38.3221 42.0289 38.3221Z" fill="#EFF4F7"/>
<path fill-rule="evenodd" clip-rule="evenodd" d="M42.3414 33.198C42.4145 33.1696 42.4957 33.1699 42.5686 33.1988C42.6416 33.2278 42.7009 33.2831 42.7347 33.3539C42.7685 33.4247 42.7744 33.5056 42.7511 33.5805C42.7278 33.6554 42.677 33.7188 42.609 33.7579L42.3414 33.9124V34.2244C42.3414 34.3032 42.3116 34.3791 42.2581 34.4368C42.2045 34.4946 42.1312 34.53 42.0526 34.536C41.9741 34.542 41.8962 34.5181 41.8345 34.4692C41.7728 34.4202 41.7319 34.3498 41.7199 34.2719L40.0837 35.2166C40.0122 35.2573 39.9275 35.2681 39.848 35.2466C39.7686 35.2251 39.7009 35.1731 39.6597 35.1019C39.6184 35.0307 39.607 34.9461 39.6279 34.8665C39.6488 34.7869 39.7003 34.7188 39.7712 34.6771L41.7164 33.554V30.2899C41.7164 30.207 41.7493 30.1276 41.8079 30.0689C41.8665 30.0103 41.946 29.9774 42.0289 29.9774C42.1118 29.9774 42.1912 30.0103 42.2498 30.0689C42.3084 30.1276 42.3414 30.207 42.3414 30.2899L42.3414 33.198Z" fill="#4D5C7D"/>
<path fill-rule="evenodd" clip-rule="evenodd" d="M49.5154 41.74C51.3374 41.74 52.8233 40.2542 52.8233 38.4322C52.8233 36.6102 51.3374 35.1243 49.5154 35.1243C47.6935 35.1243 46.2075 36.6102 46.2075 38.4322C46.2075 40.2542 47.6935 41.74 49.5154 41.74Z" fill="#62A4FB"/>
<path fill-rule="evenodd" clip-rule="evenodd" d="M50.7678 36.9237C50.9551 36.7365 51.2587 36.7365 51.4459 36.9237C51.6332 37.111 51.6332 37.4146 51.4459 37.6018L49.107 39.9408C48.8949 40.1528 48.5446 40.1195 48.3744 39.8757L47.3904 38.6374C47.2259 38.4305 47.2602 38.1294 47.4672 37.9649C47.6741 37.8004 47.9752 37.8348 48.1397 38.0418L48.8084 38.8833L50.7678 36.9237Z" fill="#EFF4F7"/>
</g>
</g>
</g>
<defs>
<filter id="filter0_d_886_3935" x="-28.719" y="-36.1496" width="143.598" height="143.598" filterUnits="userSpaceOnUse" color-interpolation-filters="sRGB">
<feFlood flood-opacity="0" result="BackgroundImageFix"/>
<feColorMatrix in="SourceAlpha" type="matrix" values="0 0 0 0 0 0 0 0 0 0 0 0 0 0 0 0 0 0 127 0" result="hardAlpha"/>
<feOffset/>
<feGaussianBlur stdDeviation="22.9757"/>
<feColorMatrix type="matrix" values="0 0 0 0 0 0 0 0 0 0 0 0 0 0 0 0 0 0 0.08 0"/>
<feBlend mode="normal" in2="BackgroundImageFix" result="effect1_dropShadow_886_3935"/>
<feBlend mode="normal" in="SourceGraphic" in2="effect1_dropShadow_886_3935" result="shape"/>
</filter>
<filter id="filter1_d_886_3935" x="-21.1994" y="-31.2199" width="128.723" height="128.723" filterUnits="userSpaceOnUse" color-interpolation-filters="sRGB">
<feFlood flood-opacity="0" result="BackgroundImageFix"/>
<feColorMatrix in="SourceAlpha" type="matrix" values="0 0 0 0 0 0 0 0 0 0 0 0 0 0 0 0 0 0 127 0" result="hardAlpha"/>
<feOffset/>
<feGaussianBlur stdDeviation="20.6928"/>
<feColorMatrix type="matrix" values="0 0 0 0 0 0 0 0 0 0 0 0 0 0 0 0 0 0 0.08 0"/>
<feBlend mode="normal" in2="BackgroundImageFix" result="effect1_dropShadow_886_3935"/>
<feBlend mode="normal" in="SourceGraphic" in2="effect1_dropShadow_886_3935" result="shape"/>
</filter>
<clipPath id="clip0_886_3935">
<rect width="20" height="20" fill="white" transform="translate(33 23.2388)"/>
</clipPath>
</defs>
</svg>
