<svg width="76" height="76" viewBox="0 0 76 76" fill="none" xmlns="http://www.w3.org/2000/svg">
<g clip-path="url(#clip0_650_4099)">
<path d="M38 0C17.0474 0 0 17.0462 0 38C0 58.955 17.0474 76 38 76C58.9532 76 75.9988 58.955 75.9988 38C75.9982 17.0462 58.9526 0 38 0ZM55.5249 32.145L35.5734 52.0978C35.1391 52.5327 34.3696 52.5327 33.9347 52.0978L20.5497 38.7122C20.442 38.6046 20.3568 38.4767 20.2988 38.336C20.2409 38.1952 20.2114 38.0444 20.2121 37.8922C20.2117 37.5844 20.333 37.289 20.5497 37.0704L22.2605 35.3602C22.4779 35.1434 22.7687 35.0245 23.0811 35.0245C23.3916 35.0245 23.6829 35.1434 23.8998 35.3602L34.3345 45.7949C34.3893 45.8504 34.4546 45.8944 34.5266 45.9245C34.5985 45.9545 34.6757 45.97 34.7537 45.97C34.8317 45.97 34.9089 45.9545 34.9809 45.9245C35.0529 45.8944 35.1181 45.8504 35.173 45.7949L52.1748 28.7931C52.6097 28.3582 53.3804 28.3582 53.8141 28.7931L55.5249 30.5063C55.6328 30.6133 55.7184 30.7407 55.7768 30.881C55.8352 31.0213 55.8651 31.1719 55.865 31.3238C55.8653 31.4764 55.8354 31.6275 55.777 31.7684C55.7187 31.9094 55.633 32.0374 55.5249 32.145Z" fill="#00B585"/>
</g>
<defs>
<clipPath id="clip0_650_4099">
<rect width="76" height="76" fill="white"/>
</clipPath>
</defs>
</svg>
