<svg width="17" height="17" viewBox="0 0 17 17" fill="none" xmlns="http://www.w3.org/2000/svg">
<path d="M13.7839 5.77616L11.9645 3.95674C11.7271 3.73369 11.4159 3.60571 11.0903 3.59714C10.7646 3.58857 10.4472 3.70001 10.1983 3.91026L4.22244 9.88646C4.00782 10.1029 3.87418 10.3866 3.84397 10.6899L3.55845 13.4589C3.54951 13.5562 3.56213 13.6542 3.59541 13.746C3.6287 13.8378 3.68182 13.9212 3.75101 13.9901C3.81305 14.0517 3.88663 14.1004 3.96753 14.1334C4.04843 14.1664 4.13506 14.1832 4.22244 14.1827H4.2822L7.05103 13.9304C7.35433 13.9001 7.63801 13.7665 7.85445 13.5519L13.8303 7.57566C14.0623 7.33062 14.1876 7.00361 14.1789 6.66631C14.1702 6.329 14.0281 6.00891 13.7839 5.77616V5.77616ZM6.93151 12.6023L4.93955 12.7882L5.11882 10.7962L8.87035 7.09093L10.6631 8.88379L6.93151 12.6023ZM11.5263 7.994L9.74681 6.21442L11.0416 4.88637L12.8543 6.69915L11.5263 7.994Z" fill="#F4F4F4"/>
</svg>
