<svg width="26" height="25" viewBox="0 0 26 25" fill="none" xmlns="http://www.w3.org/2000/svg">
<path d="M13.1448 1.12079C6.83818 1.12079 1.71973 6.23924 1.71973 12.5459C1.71973 18.8526 6.83818 23.971 13.1448 23.971C19.4515 23.971 24.57 18.8526 24.57 12.5459C24.57 6.23924 19.4515 1.12079 13.1448 1.12079ZM13.1448 21.686C8.10637 21.686 4.00475 17.5844 4.00475 12.5459C4.00475 7.50743 8.10637 3.40581 13.1448 3.40581C18.1833 3.40581 22.2849 7.50743 22.2849 12.5459C22.2849 17.5844 18.1833 21.686 13.1448 21.686ZM6.86103 18.8297L15.4413 14.8424L19.4287 6.26209L10.8484 10.2495L6.86103 18.8297ZM13.1448 11.2891C13.8418 11.2891 14.4016 11.849 14.4016 12.5459C14.4016 13.2428 13.8418 13.8027 13.1448 13.8027C12.4479 13.8027 11.8881 13.2428 11.8881 12.5459C11.8881 11.849 12.4479 11.2891 13.1448 11.2891Z" fill="#B9BCBE"/>
</svg>
