<svg width="16" height="16" viewBox="0 0 16 16" fill="none" xmlns="http://www.w3.org/2000/svg">
<path d="M16 2.33334C16 2.88667 15.5533 3.33334 15 3.33334H1C0.446667 3.33334 0 2.88667 0 2.33334C0 1.78 0.446667 1.33334 1 1.33334H15C15.5533 1.33334 16 1.78 16 2.33334ZM9.66667 13.3333H6.33333C5.78 13.3333 5.33333 13.78 5.33333 14.3333C5.33333 14.8867 5.78 15.3333 6.33333 15.3333H9.66667C10.22 15.3333 10.6667 14.8867 10.6667 14.3333C10.6667 13.78 10.22 13.3333 9.66667 13.3333ZM12.3333 7.33334H3.66667C3.11333 7.33334 2.66667 7.78 2.66667 8.33334C2.66667 8.88667 3.11333 9.33334 3.66667 9.33334H12.3333C12.8867 9.33334 13.3333 8.88667 13.3333 8.33334C13.3333 7.78 12.8867 7.33334 12.3333 7.33334Z" fill="#034542"/>
</svg>
