<svg width="30" height="29" viewBox="0 0 30 29" fill="none" xmlns="http://www.w3.org/2000/svg">
<path d="M28.4049 11.9788L16.5761 11.9783C16.0538 11.9783 15.6304 12.4016 15.6304 12.9239V16.7027C15.6304 17.2249 16.0538 17.6484 16.576 17.6484H23.2373C22.5079 19.5414 21.1465 21.1267 19.4095 22.134L22.2499 27.0509C26.8062 24.4158 29.4999 19.7923 29.4999 14.6166C29.4999 13.8796 29.4456 13.3528 29.3369 12.7596C29.2544 12.3089 28.8631 11.9788 28.4049 11.9788Z" fill="#167EE6"/>
<path d="M15.0002 23.326C11.7403 23.326 8.89441 21.5448 7.36596 18.9092L2.44922 21.7431C4.95132 26.0797 9.63856 28.9999 15.0002 28.9999C17.6304 28.9999 20.1122 28.2917 22.2502 27.0576V27.0508L19.4098 22.1338C18.1106 22.8874 16.6071 23.326 15.0002 23.326Z" fill="#12B347"/>
<path d="M22.25 27.0577V27.051L19.4096 22.134C18.1104 22.8875 16.6071 23.3261 15 23.3261V29.0001C17.6302 29.0001 20.1122 28.2919 22.25 27.0577Z" fill="#0F993E"/>
<path d="M6.17392 14.5001C6.17392 12.8933 6.61243 11.39 7.36581 10.0908L2.44906 7.25684C1.20812 9.38805 0.5 11.8631 0.5 14.5001C0.5 17.1371 1.20812 19.6121 2.44906 21.7434L7.36581 18.9094C6.61243 17.6102 6.17392 16.1069 6.17392 14.5001Z" fill="#FFD500"/>
<path d="M15.0002 5.67392C17.1259 5.67392 19.0786 6.42928 20.6037 7.68574C20.98 7.99567 21.5269 7.9733 21.8715 7.62864L24.5489 4.95124C24.94 4.56019 24.9121 3.9201 24.4944 3.55771C21.939 1.34085 18.6142 0 15.0002 0C9.63856 0 4.95132 2.92022 2.44922 7.25674L7.36597 10.0907C8.89441 7.45504 11.7403 5.67392 15.0002 5.67392Z" fill="#FF4B26"/>
<path d="M20.6036 7.68574C20.9798 7.99567 21.5268 7.9733 21.8714 7.62864L24.5488 4.95124C24.9397 4.56019 24.9119 3.9201 24.4942 3.55771C21.9389 1.3408 18.6141 0 15 0V5.67392C17.1257 5.67392 19.0784 6.42928 20.6036 7.68574Z" fill="#D93F21"/>
</svg>
