<svg width="20" height="20" viewBox="0 0 20 20" fill="none" xmlns="http://www.w3.org/2000/svg">
<path d="M8.13314 11.9724C7.65397 11.4941 7.3623 10.8441 7.3623 10.1149C7.3623 8.65406 8.53897 7.47656 9.99897 7.47656C10.7215 7.47656 11.3865 7.76906 11.8573 8.2474" stroke="#034542" stroke-width="1.5" stroke-linecap="round" stroke-linejoin="round"/>
<path d="M12.5868 10.5825C12.3935 11.6575 11.5468 12.5059 10.4727 12.7009" stroke="#034542" stroke-width="1.5" stroke-linecap="round" stroke-linejoin="round"/>
<path d="M5.54518 14.5605C4.22268 13.5221 3.10268 12.0055 2.29102 10.1146C3.11102 8.21548 4.23852 6.69048 5.56935 5.64381C6.89185 4.59714 8.41768 4.02881 9.99935 4.02881C11.5902 4.02881 13.1152 4.60548 14.446 5.65964" stroke="#034542" stroke-width="1.5" stroke-linecap="round" stroke-linejoin="round"/>
<path d="M16.2063 7.49268C16.7796 8.25434 17.2838 9.13351 17.708 10.1143C16.0688 13.9118 13.1721 16.1993 9.99965 16.1993C9.28048 16.1993 8.57132 16.0827 7.88965 15.8552" stroke="#034542" stroke-width="1.5" stroke-linecap="round" stroke-linejoin="round"/>
<path d="M16.5718 3.5415L3.42676 16.6865" stroke="#034542" stroke-width="1.5" stroke-linecap="round" stroke-linejoin="round"/>
</svg>
