<svg width="14" height="15" viewBox="0 0 14 15" fill="none" xmlns="http://www.w3.org/2000/svg">
<g clip-path="url(#clip0_627_12576)">
<path d="M13.9664 14.4175L11.4959 8.64246C11.4642 8.56828 11.4114 8.50506 11.3441 8.46063C11.2768 8.4162 11.1981 8.39251 11.1175 8.39249H9.54853C10.1835 7.28098 10.7057 6.05076 10.7057 5.00988C10.7057 -0.350362 3.2943 -0.415732 3.2943 5.00988C3.2943 6.05076 3.81649 7.28095 4.45149 8.39249H2.88253C2.80196 8.39248 2.72315 8.41617 2.65588 8.46061C2.58862 8.50504 2.53584 8.56828 2.5041 8.64249L0.0336422 14.4175C-0.0825687 14.6891 0.116548 14.9925 0.41208 14.9925H13.5879C13.8828 14.9925 14.0828 14.6898 13.9664 14.4175ZM10.8459 9.21747L12.0649 12.067C12.0268 12.0869 8.05914 14.1512 8.03073 14.1675H7.16886C7.14709 14.1431 7.33229 14.3296 4.64878 11.6412L6.13931 10.8768C6.44321 11.2654 6.65608 11.5123 6.6893 11.5506C6.85336 11.7398 7.14676 11.7395 7.31061 11.5506C7.37951 11.4712 8.21883 10.4968 9.04565 9.21747H10.8459ZM7.00001 1.79227C8.38814 1.79227 9.88221 2.79923 9.88221 5.00986C9.88221 6.8686 7.80271 9.63473 7.00001 10.633C6.19733 9.63465 4.11781 6.8686 4.11781 5.00986C4.11781 2.78728 5.56528 1.79227 7.00001 1.79227ZM3.15406 9.21747C5.14865 9.21747 4.92199 9.2178 4.95393 9.21684C5.18581 9.57566 5.41867 9.91054 5.63528 10.2085L1.91374 12.1169L3.15406 9.21747ZM1.40586 13.3042L3.87856 12.0362L6.00601 14.1675H1.0365L1.40586 13.3042ZM9.81535 14.1675L12.3903 12.8274L12.9635 14.1675H9.81535Z" fill="#034542"/>
<path d="M8.2351 4.67994C8.2351 3.99759 7.68095 3.44235 6.99993 3.44235C6.3188 3.44235 5.76465 3.99759 5.76465 4.67994C5.76465 5.3623 6.3188 5.91742 6.99993 5.91742C7.68095 5.91742 8.2351 5.3623 8.2351 4.67994ZM6.58819 4.67994C6.58819 4.45241 6.77284 4.26737 6.99993 4.26737C7.22688 4.26737 7.4117 4.45241 7.4117 4.67994C7.4117 4.90734 7.22691 5.09241 6.99993 5.09241C6.77284 5.09241 6.58816 4.90737 6.58816 4.67994H6.58819Z" fill="#034542"/>
</g>
<defs>
<clipPath id="clip0_627_12576">
<rect width="14" height="14" fill="white" transform="translate(0 0.951447)"/>
</clipPath>
</defs>
</svg>
