<svg width="25" height="25" viewBox="0 0 25 25" fill="none" xmlns="http://www.w3.org/2000/svg">
<g clip-path="url(#clip0_263_1815)">
<path d="M8.48483 21.2432H3.89385C3.66819 21.2426 3.48538 21.0598 3.48486 20.8342V3.65215C3.48543 3.42649 3.66819 3.24368 3.89385 3.24316H8.48483C9.31325 3.24316 9.98483 2.57159 9.98483 1.74316C9.98483 0.914742 9.31325 0.243164 8.48483 0.243164H3.89385C2.012 0.245367 0.487066 1.77035 0.484863 3.65215V20.8341C0.487066 22.716 2.012 24.241 3.89385 24.2432H8.48483C9.31325 24.2432 9.98483 23.5716 9.98483 22.7432C9.98483 21.9147 9.31325 21.2432 8.48483 21.2432Z" fill="white"/>
<path d="M23.1664 9.06129L19.2844 5.18229C18.6984 4.59659 17.7486 4.59682 17.1629 5.1828C16.5772 5.76879 16.5774 6.71862 17.1634 7.30432L20.5754 10.7153L6.98437 10.7433C6.15595 10.7433 5.48438 11.4149 5.48438 12.2433C5.48438 13.0717 6.15595 13.7433 6.98437 13.7433L20.6304 13.7183L17.1634 17.1853C16.5989 17.7917 16.6329 18.7408 17.2392 19.3053C17.8155 19.8418 18.7086 19.8414 19.2844 19.3043L23.1634 15.4253C24.9208 13.668 24.9208 10.8187 23.1634 9.06138L23.1634 9.06134L23.1664 9.06129Z" fill="white"/>
</g>
<defs>
<clipPath id="clip0_263_1815">
<rect width="24" height="24" fill="white" transform="translate(0.483887 0.243164)"/>
</clipPath>
</defs>
</svg>
