<svg width="36" height="35" viewBox="0 0 36 35" fill="none" xmlns="http://www.w3.org/2000/svg">
<path d="M28.6875 13.125H26.5V8.75C26.5 8.03183 26.3585 7.3207 26.0837 6.6572C25.8089 5.9937 25.4061 5.39083 24.8982 4.88301C24.3904 4.37519 23.7875 3.97236 23.1241 3.69753C22.4606 3.4227 21.7494 3.28125 21.0312 3.28125H9C7.5496 3.28125 6.1586 3.85742 5.13301 4.88301C4.10742 5.9086 3.53125 7.2996 3.53125 8.75V21.875C3.53125 22.1651 3.64648 22.4433 3.8516 22.6484C4.05672 22.8535 4.33492 22.9688 4.625 22.9688C4.91508 22.9688 5.19328 22.8535 5.3984 22.6484C5.60352 22.4433 5.71875 22.1651 5.71875 21.875V8.75C5.71875 7.87976 6.06445 7.04516 6.67981 6.42981C7.29516 5.81445 8.12976 5.46875 9 5.46875H21.0312C21.9015 5.46875 22.7361 5.81445 23.3514 6.42981C23.9668 7.04516 24.3125 7.87976 24.3125 8.75V14.2188C24.3125 14.5088 24.4277 14.787 24.6329 14.9921C24.838 15.1973 25.1162 15.3125 25.4062 15.3125H28.6875C28.9776 15.3125 29.2558 15.4277 29.4609 15.6329C29.666 15.838 29.7812 16.1162 29.7812 16.4062V26.25C29.7812 27.1202 29.4355 27.9548 28.8202 28.5702C28.2048 29.1855 27.3702 29.5312 26.5 29.5312H9C8.12976 29.5312 7.29516 29.1855 6.67981 28.5702C6.06445 27.9548 5.71875 27.1202 5.71875 26.25C5.71875 25.9599 5.60352 25.6817 5.3984 25.4766C5.19328 25.2715 4.91508 25.1562 4.625 25.1562C4.33492 25.1562 4.05672 25.2715 3.8516 25.4766C3.64648 25.6817 3.53125 25.9599 3.53125 26.25C3.53125 27.7004 4.10742 29.0914 5.13301 30.117C6.1586 31.1426 7.5496 31.7188 9 31.7188H26.5C27.9504 31.7188 29.3414 31.1426 30.367 30.117C31.3926 29.0914 31.9688 27.7004 31.9688 26.25V16.4062C31.9688 15.536 31.623 14.7014 31.0077 14.0861C30.3923 13.4707 29.5577 13.125 28.6875 13.125Z" fill="#AFAFAF"/>
<path d="M12.8281 15.3125H17.2031C17.9283 15.3125 18.6238 15.0244 19.1366 14.5116C19.6494 13.9988 19.9375 13.3033 19.9375 12.5781C19.9375 11.8529 19.6494 11.1574 19.1366 10.6446C18.6238 10.1318 17.9283 9.84375 17.2031 9.84375H12.8281C12.1029 9.84375 11.4074 10.1318 10.8946 10.6446C10.3818 11.1574 10.0938 11.8529 10.0938 12.5781C10.0938 13.3033 10.3818 13.9988 10.8946 14.5116C11.4074 15.0244 12.1029 15.3125 12.8281 15.3125ZM12.8281 12.0312H17.2031C17.3482 12.0312 17.4873 12.0889 17.5898 12.1914C17.6924 12.294 17.75 12.4331 17.75 12.5781C17.75 12.7232 17.6924 12.8623 17.5898 12.9648C17.4873 13.0674 17.3482 13.125 17.2031 13.125H12.8281C12.6831 13.125 12.544 13.0674 12.4414 12.9648C12.3389 12.8623 12.2812 12.7232 12.2812 12.5781C12.2812 12.4331 12.3389 12.294 12.4414 12.1914C12.544 12.0889 12.6831 12.0312 12.8281 12.0312ZM12.8281 25.1562H22.6719C23.3971 25.1562 24.0926 24.8682 24.6054 24.3554C25.1182 23.8426 25.4062 23.1471 25.4062 22.4219C25.4062 21.6967 25.1182 21.0012 24.6054 20.4884C24.0926 19.9756 23.3971 19.6875 22.6719 19.6875H12.8281C12.1029 19.6875 11.4074 19.9756 10.8946 20.4884C10.3818 21.0012 10.0938 21.6967 10.0938 22.4219C10.0938 23.1471 10.3818 23.8426 10.8946 24.3554C11.4074 24.8682 12.1029 25.1562 12.8281 25.1562ZM12.8281 21.875H22.6719C22.8169 21.875 22.956 21.9326 23.0586 22.0352C23.1611 22.1377 23.2188 22.2768 23.2188 22.4219C23.2188 22.5669 23.1611 22.706 23.0586 22.8086C22.956 22.9111 22.8169 22.9688 22.6719 22.9688H12.8281C12.6831 22.9688 12.544 22.9111 12.4414 22.8086C12.3389 22.706 12.2812 22.5669 12.2812 22.4219C12.2812 22.2768 12.3389 22.1377 12.4414 22.0352C12.544 21.9326 12.6831 21.875 12.8281 21.875Z" fill="#AFAFAF"/>
</svg>
