<svg width="25" height="25" viewBox="0 0 25 25" fill="none" xmlns="http://www.w3.org/2000/svg">
<g clip-path="url(#clip0_620_8214)">
<path fill-rule="evenodd" clip-rule="evenodd" d="M13.1413 9.38802C12.54 8.34641 14.4201 6.1364 17.3404 4.44993C20.2594 2.76482 23.1143 2.24127 23.7155 3.28288C24.0482 3.85958 24.3808 4.43629 24.7149 5.01435C25.3161 6.0546 23.436 8.26461 20.5157 9.95108C17.5954 11.6362 14.7418 12.1597 14.1406 11.1195C13.808 10.5414 13.4739 9.96472 13.1413 9.38802Z" fill="#034542"/>
<path fill-rule="evenodd" clip-rule="evenodd" d="M17.3404 4.44993C20.2594 2.76482 23.1143 2.24127 23.7155 3.28288C24.3168 4.32313 22.4367 6.53315 19.5164 8.21961C16.5961 9.90608 13.7425 10.4283 13.1413 9.38802C12.54 8.34641 14.4201 6.1364 17.3404 4.44993Z" fill="#00B585"/>
<path fill-rule="evenodd" clip-rule="evenodd" d="M17.849 5.33072C20.1722 3.99052 22.3141 3.3525 22.6344 3.906C22.9548 4.46091 21.3311 5.99742 19.0079 7.33894C16.6847 8.6805 14.5415 9.31856 14.2224 8.76365C13.9021 8.2088 15.5258 6.67228 17.849 5.33072Z" fill="#034542"/>
<path d="M23.4976 6.20613L24.0293 7.12774C24.1561 6.9723 24.2706 6.81963 24.3687 6.66963L23.9488 5.94434L23.4976 6.20613ZM23.0422 8.14755C22.9104 8.2652 22.7763 8.38021 22.64 8.49251L22.1328 7.61313L22.5841 7.3541L23.0422 8.14755ZM21.537 9.31188C21.3932 9.40982 21.2478 9.50527 21.1007 9.59819L20.6168 8.75974L21.068 8.50071L21.537 9.31188ZM19.9187 10.2799C19.7619 10.363 19.6065 10.4407 19.4524 10.5171L18.982 9.70451L19.4347 9.44276L19.9187 10.2799ZM18.1913 11.0611C18.0259 11.1235 17.8591 11.1821 17.691 11.2369L17.2315 10.4435L17.6841 10.1831L18.1913 11.0611ZM16.314 11.5819C16.1163 11.6146 15.9267 11.6364 15.7481 11.6473L15.3296 10.922L15.7822 10.6602L16.314 11.5819Z" fill="#00B585"/>
<path fill-rule="evenodd" clip-rule="evenodd" d="M12.6968 13.9074C13.298 12.8671 11.4179 10.6558 8.49763 8.97065C5.57868 7.28418 2.72376 6.76199 2.12254 7.80224C1.78987 8.37894 1.45724 8.957 1.12321 9.53371C0.521944 10.574 2.40205 12.7853 5.32236 14.4704C8.24268 16.1569 11.0962 16.6791 11.6975 15.6388C12.0314 15.0622 12.3641 14.4841 12.6968 13.9074Z" fill="#034542"/>
<path fill-rule="evenodd" clip-rule="evenodd" d="M8.49735 8.97065C5.5784 7.28418 2.72348 6.76199 2.12226 7.80224C1.5224 8.84385 3.40246 11.0539 6.32142 12.739C9.24173 14.4254 12.0967 14.9476 12.6965 13.9074C13.2978 12.8671 11.4177 10.6558 8.49735 8.97065Z" fill="#00B585"/>
<path fill-rule="evenodd" clip-rule="evenodd" d="M7.98932 9.85149C5.66751 8.50993 3.52429 7.87191 3.2039 8.42677C2.88351 8.98032 4.50726 10.5182 6.83043 11.8584C9.1536 13.1999 11.2968 13.8379 11.6172 13.2831C11.9362 12.7296 10.3125 11.1931 7.98932 9.85149Z" fill="#034542"/>
<path d="M2.34052 10.7257L1.80881 11.6473C1.68202 11.4918 1.56886 11.3392 1.4707 11.1905L1.88925 10.4639L2.34052 10.7257ZM2.79586 12.6671C2.92759 12.7848 3.06168 12.8998 3.19805 13.012L3.70519 12.134L3.25392 11.8736L2.79586 12.6671ZM4.30101 13.8328C4.44536 13.9301 4.59125 14.0251 4.73864 14.1177L5.22262 13.2793L4.77 13.0202L4.30101 13.8328ZM5.91933 14.8007C6.07398 14.8818 6.22989 14.9604 6.387 15.0366L6.85598 14.224L6.40336 13.9623L5.91933 14.8007ZM7.64808 15.5806C7.81335 15.6434 7.98018 15.7021 8.14842 15.7565L8.60653 14.963L8.1539 14.704L7.64808 15.5806ZM9.52406 16.1027C9.72314 16.1341 9.91125 16.1559 10.0898 16.1668L10.5084 15.4415L10.0571 15.1798L9.52406 16.1027Z" fill="#00B585"/>
<path fill-rule="evenodd" clip-rule="evenodd" d="M12.2756 19.616C11.6757 18.5758 13.5545 16.3658 16.4748 14.6793C19.3951 12.9942 22.2487 12.4707 22.8499 13.5109C23.1832 14.0879 23.5163 14.6651 23.8492 15.2424C24.4505 16.284 22.5704 18.494 19.6514 20.1805C16.7311 21.8656 13.8762 22.3891 13.275 21.3475C12.9421 20.7702 12.609 20.1931 12.2756 19.616Z" fill="#034542"/>
<path fill-rule="evenodd" clip-rule="evenodd" d="M16.4748 14.6793C19.3951 12.9942 22.2487 12.4707 22.8499 13.5109C23.4512 14.5525 21.5711 16.7625 18.6507 18.449C15.7318 20.1341 12.8769 20.6577 12.2756 19.616C11.6757 18.5758 13.5545 16.3658 16.4748 14.6793Z" fill="#00B585"/>
<path fill-rule="evenodd" clip-rule="evenodd" d="M16.9833 15.5599C19.3065 14.2184 21.4497 13.5817 21.7687 14.1352C22.0891 14.6901 20.4654 16.2266 18.1421 17.5681C15.819 18.9083 13.6771 19.5464 13.3567 18.9929C13.0364 18.438 14.6601 16.9014 16.9833 15.5599Z" fill="#034542"/>
<path d="M22.6314 16.4351L23.1645 17.3567C23.2848 17.2098 23.3976 17.0569 23.5026 16.8986L23.0841 16.1733L22.6314 16.4351ZM22.1774 18.3752C22.0455 18.4932 21.911 18.6082 21.7739 18.7201L21.2667 17.8421L21.7193 17.5831L22.1774 18.3752ZM20.6723 19.5408C20.5278 19.6385 20.3819 19.7339 20.2346 19.8272L19.7507 18.9887L20.2033 18.7283L20.6723 19.5408ZM19.0526 20.5088C18.8984 20.5899 18.743 20.6685 18.5863 20.7447L18.1173 19.9321L18.5686 19.6704L19.0526 20.5088ZM17.3252 21.29C17.1594 21.3514 16.9926 21.4101 16.8249 21.4659L16.3667 20.671L16.818 20.412L17.3252 21.29ZM15.4492 21.8109C15.2501 21.8436 15.0606 21.864 14.8834 21.8749L14.4648 21.1496L14.9161 20.8879L15.4492 21.8109Z" fill="#00B585"/>
<path d="M11.1041 5.19043V5.96621H11.8799V6.63971H11.1041V7.4168H10.4306V6.63971H9.6535V5.96621H10.4306V5.19043H11.1041ZM8.7046 17.6339V18.4096H9.4817V19.0831H8.7046V19.8602H8.03111V19.0831H7.25537V18.4096H8.03111V17.6339H8.7046ZM24.187 10.0249V10.8007H24.9641V11.4742H24.187V12.2513H23.5134V11.4742H22.7377V10.8007H23.5134V10.0249H24.187Z" fill="#034542"/>
</g>
<defs>
<clipPath id="clip0_620_8214">
<rect width="24" height="24" fill="white" transform="translate(0.987793 0.314941)"/>
</clipPath>
</defs>
</svg>
