<svg width="25" height="25" viewBox="0 0 25 25" fill="none" xmlns="http://www.w3.org/2000/svg">
<path fill-rule="evenodd" clip-rule="evenodd" d="M17.5017 21.8548H9.15383C6.08747 21.8548 3.73507 20.7472 4.40326 16.2896L5.18129 10.2484C5.59319 8.02411 7.01195 7.17285 8.25681 7.17285H18.4353C19.6985 7.17285 21.0348 8.08818 21.5108 10.2484L22.2888 16.2896C22.8563 20.2438 20.568 21.8548 17.5017 21.8548Z" stroke="#034542" stroke-width="2" stroke-linecap="round" stroke-linejoin="round"/>
<path d="M17.639 6.95322C17.639 4.56715 15.7047 2.63285 13.3187 2.63285V2.63285C12.1697 2.62798 11.066 3.08101 10.2519 3.89177C9.43766 4.70252 8.97997 5.80421 8.97998 6.95322V6.95322" stroke="#034542" stroke-width="2" stroke-linecap="round" stroke-linejoin="round"/>
<path d="M16.2843 11.4567H16.2385" stroke="#034542" stroke-width="2" stroke-linecap="round" stroke-linejoin="round"/>
<path d="M10.4537 11.4567H10.4079" stroke="#034542" stroke-width="2" stroke-linecap="round" stroke-linejoin="round"/>
</svg>
