<svg width="14" height="15" viewBox="0 0 14 15" fill="none" xmlns="http://www.w3.org/2000/svg">
<path fill-rule="evenodd" clip-rule="evenodd" d="M1.74403 3.79377C1.92856 3.48825 2.94522 2.37699 3.67072 2.41053C3.88759 2.42851 4.0793 2.5597 4.23506 2.71186C4.59272 3.06112 5.61657 4.38205 5.67468 4.66001C5.81607 5.34175 5.0037 5.73473 5.25232 6.42186C5.88616 7.97283 6.97831 9.06492 8.52996 9.69813C9.21652 9.94674 9.60953 9.13441 10.2913 9.27639C10.5687 9.3345 11.8903 10.3583 12.2395 10.7159C12.3911 10.8711 12.5229 11.0634 12.5409 11.2803C12.5678 12.0441 11.3876 13.075 11.1576 13.2068C10.6148 13.595 9.90668 13.5884 9.04338 13.1871C6.63443 12.1848 2.78466 8.40775 1.7638 5.90786C1.3732 5.0494 1.34624 4.33652 1.74403 3.79377Z" stroke="#034542" stroke-linecap="round" stroke-linejoin="round"/>
</svg>
