<svg width="26" height="25" viewBox="0 0 26 25" fill="none" xmlns="http://www.w3.org/2000/svg">
<path d="M13.0823 23.971C19.3825 23.971 24.5075 18.846 24.5075 12.5459C24.5075 6.24577 19.3825 1.12079 13.0823 1.12079C6.78221 1.12079 1.65723 6.24577 1.65723 12.5459C1.65723 18.846 6.78221 23.971 13.0823 23.971ZM13.0823 2.75295C18.4848 2.75295 22.8753 7.14346 22.8753 12.5459C22.8753 17.9484 18.4848 22.3389 13.0823 22.3389C7.6799 22.3389 3.28939 17.9484 3.28939 12.5459C3.28939 7.14346 7.6799 2.75295 13.0823 2.75295Z" fill="#B9BCBE"/>
<path d="M8.18583 11.7299H17.9788C18.1952 11.7299 18.4028 11.6439 18.5558 11.4909C18.7089 11.3379 18.7949 11.1303 18.7949 10.9138C18.7949 10.6974 18.7089 10.4898 18.5558 10.3368C18.4028 10.1837 18.1952 10.0978 17.9788 10.0978H9.71109L10.497 8.91852C10.6171 8.73845 10.6608 8.51803 10.6184 8.30575C10.576 8.09348 10.451 7.90674 10.2709 7.78662C10.0908 7.6665 9.87042 7.62283 9.65815 7.66522C9.44587 7.70762 9.25914 7.8326 9.13901 8.01267L7.50685 10.4609C7.42485 10.5838 7.37776 10.7267 7.37059 10.8742C7.36342 11.0218 7.39645 11.1686 7.46615 11.2988C7.53585 11.4291 7.63961 11.538 7.76636 11.6139C7.89311 11.6899 8.03809 11.7299 8.18583 11.7299ZM8.18583 14.9942H16.4544L15.6677 16.1735C15.6082 16.2626 15.5668 16.3626 15.546 16.4678C15.5252 16.5729 15.5253 16.6811 15.5463 16.7862C15.5672 16.8914 15.6087 16.9913 15.6684 17.0804C15.728 17.1694 15.8045 17.2459 15.8937 17.3054C16.0738 17.4255 16.2942 17.4692 16.5065 17.4268C16.7188 17.3844 16.9055 17.2594 17.0256 17.0793L18.6578 14.6311C18.7395 14.5081 18.7863 14.3653 18.7934 14.2178C18.8004 14.0704 18.7673 13.9238 18.6977 13.7936C18.628 13.6634 18.5244 13.5546 18.3978 13.4786C18.2712 13.4026 18.1264 13.3623 17.9788 13.3621H8.18583C7.96939 13.3621 7.76182 13.4481 7.60878 13.6011C7.45573 13.7541 7.36975 13.9617 7.36975 14.1782C7.36975 14.3946 7.45573 14.6022 7.60878 14.7552C7.76182 14.9083 7.96939 14.9942 8.18583 14.9942Z" fill="#B9BCBE"/>
</svg>
