<svg width="25" height="25" viewBox="0 0 25 25" fill="none" xmlns="http://www.w3.org/2000/svg">
<g clip-path="url(#clip0_263_1784)">
<path d="M8.98682 12.2988C12.2958 12.2988 14.9868 9.60783 14.9868 6.29883C14.9868 2.98983 12.2958 0.298828 8.98682 0.298828C5.67782 0.298828 2.98682 2.98983 2.98682 6.29883C2.98682 9.60783 5.67782 12.2988 8.98682 12.2988ZM8.98682 2.29883C11.1928 2.29883 12.9868 4.09283 12.9868 6.29883C12.9868 8.50483 11.1928 10.2988 8.98682 10.2988C6.78082 10.2988 4.98682 8.50483 4.98682 6.29883C4.98682 4.09283 6.78082 2.29883 8.98682 2.29883ZM5.98682 14.2988H10.9868V16.2988H5.98682C4.33282 16.2988 2.98682 17.6448 2.98682 19.2988V24.2988H0.986816V19.2988C0.986816 16.5418 3.22982 14.2988 5.98682 14.2988ZM22.9868 14.2988V13.2988C22.9868 11.0928 21.1928 9.29883 18.9868 9.29883C16.7808 9.29883 14.9868 11.0928 14.9868 13.2988V14.2988H12.9868V21.2988C12.9868 22.9528 14.3328 24.2988 15.9868 24.2988H21.9868C23.6408 24.2988 24.9868 22.9528 24.9868 21.2988V14.2988H22.9868ZM16.9868 13.2988C16.9868 12.1958 17.8838 11.2988 18.9868 11.2988C20.0898 11.2988 20.9868 12.1958 20.9868 13.2988V14.2988H16.9868V13.2988ZM22.9868 21.2988C22.9868 21.8498 22.5378 22.2988 21.9868 22.2988H15.9868C15.4358 22.2988 14.9868 21.8498 14.9868 21.2988V16.2988H22.9868V21.2988ZM19.9868 20.2988H17.9868V18.2988H19.9868V20.2988Z" fill="#034542"/>
</g>
<defs>
<clipPath id="clip0_263_1784">
<rect width="24" height="24" fill="white" transform="translate(0.987793 0.298828)"/>
</clipPath>
</defs>
</svg>
