<svg width="26" height="25" viewBox="0 0 26 25" fill="none" xmlns="http://www.w3.org/2000/svg">
<g clip-path="url(#clip0_1372_19638)">
<path d="M12.8116 12.0899C14.4612 12.0899 15.8895 11.4982 17.0569 10.3308C18.2238 9.16371 18.8157 7.73564 18.8157 6.08584C18.8157 4.43654 18.224 3.00832 17.0567 1.84076C15.8893 0.673793 14.461 0.0821533 12.8116 0.0821533C11.1618 0.0821533 9.73367 0.673793 8.56655 1.84096C7.39944 3.00812 6.80756 4.43639 6.80756 6.08584C6.80756 7.73564 7.39939 9.16391 8.5666 10.3311C9.73411 11.498 11.1624 12.0899 12.8116 12.0899H12.8116ZM9.59963 2.87384C10.4952 1.97825 11.5458 1.54295 12.8116 1.54295C14.0773 1.54295 15.128 1.97825 16.0238 2.87384C16.9194 3.76958 17.3549 4.82033 17.3549 6.08579C17.3549 7.35165 16.9194 8.40225 16.0238 9.29799C15.128 10.1938 14.0773 10.6291 12.8116 10.6291C11.5461 10.6291 10.4956 10.1936 9.59963 9.29799C8.70385 8.40245 8.26835 7.3517 8.26835 6.08584C8.26835 4.82033 8.70385 3.76958 9.59963 2.87384ZM23.3171 19.2502C23.2834 18.7645 23.2153 18.2346 23.1151 17.6752C23.0139 17.1114 22.8837 16.5785 22.7277 16.0915C22.5664 15.5881 22.3475 15.091 22.0765 14.6145C21.7956 14.1201 21.4655 13.6895 21.095 13.3352C20.7076 12.9645 20.2333 12.6665 19.6848 12.4491C19.1382 12.2329 18.5325 12.1234 17.8845 12.1234C17.6301 12.1234 17.384 12.2278 16.9087 12.5372C16.5709 12.7572 16.232 12.9756 15.8922 13.1925C15.5656 13.4006 15.1233 13.5956 14.5769 13.772C14.0438 13.9445 13.5025 14.032 12.9681 14.032C12.4341 14.032 11.8928 13.9445 11.3594 13.772C10.8136 13.5957 10.371 13.4008 10.045 13.1927C9.66672 12.951 9.32446 12.7304 9.02757 12.537C8.55268 12.2276 8.30657 12.1231 8.05213 12.1231C7.40397 12.1231 6.79845 12.2329 6.25204 12.4493C5.70393 12.6663 5.22943 12.9643 4.84164 13.3354C4.47118 13.6899 4.14104 14.1202 3.86031 14.6145C3.58971 15.0909 3.37062 15.5879 3.20932 16.0917C3.05353 16.5787 2.92329 17.1114 2.82212 17.6752C2.72168 18.2339 2.65381 18.7639 2.62012 19.2508C2.58701 19.7268 2.57031 20.2222 2.57031 20.7228C2.57031 22.024 2.98395 23.0774 3.79965 23.8543C4.60527 24.621 5.67106 25.0097 6.96749 25.0097H18.9703C20.2663 25.0097 21.3321 24.621 22.1379 23.8544C22.9538 23.078 23.3675 22.0242 23.3675 20.7226C23.3673 20.2203 23.3504 19.7249 23.3171 19.2502ZM21.1308 22.796C20.5984 23.3026 19.8917 23.5489 18.9701 23.5489H6.96754C6.04576 23.5489 5.33902 23.3026 4.80688 22.7962C4.28486 22.2992 4.03115 21.6209 4.03115 20.7228C4.03115 20.2557 4.04654 19.7945 4.07741 19.3518C4.1074 18.9174 4.16884 18.4402 4.25998 17.9332C4.34991 17.4325 4.46437 16.9625 4.60054 16.5371C4.73122 16.1291 4.90941 15.7252 5.1304 15.3361C5.34131 14.9652 5.58396 14.647 5.85174 14.3907C6.10223 14.1509 6.41797 13.9546 6.78993 13.8074C7.13395 13.6712 7.52062 13.5967 7.94035 13.5854C7.99147 13.6127 8.08261 13.6646 8.23018 13.7608C8.53048 13.9565 8.87659 14.1798 9.25927 14.4242C9.69063 14.6992 10.2463 14.9475 10.9102 15.1619C11.589 15.3813 12.2812 15.4928 12.9684 15.4928C13.6555 15.4928 14.3479 15.3813 15.0263 15.162C15.6908 14.9473 16.2463 14.6992 16.6783 14.4238C17.0699 14.1735 17.4063 13.9567 17.7065 13.7608C17.8542 13.6647 17.9452 13.6126 17.9964 13.5855C18.4163 13.5967 18.803 13.6712 19.1472 13.8074C19.519 13.9546 19.8347 14.1511 20.0852 14.3907C20.3529 14.6468 20.5956 14.9651 20.8065 15.3363C21.0277 15.7252 21.2061 16.1294 21.3366 16.5369C21.4729 16.9629 21.5876 17.4326 21.6774 17.933C21.7683 18.441 21.8299 18.9184 21.8599 19.352V19.3524C21.891 19.7934 21.9065 20.2544 21.9067 20.7228C21.9065 21.6211 21.6528 22.2993 21.1308 22.796H21.1308Z" fill="#B9BCBE"/>
</g>
<defs>
<clipPath id="clip0_1372_19638">
<rect width="24.9275" height="24.9276" fill="white" transform="translate(0.492676 0.0821533)"/>
</clipPath>
</defs>
</svg>
