<svg width="32" height="32" viewBox="0 0 32 32" fill="none" xmlns="http://www.w3.org/2000/svg">
<rect x="0.723145" y="0.322876" width="30.9199" height="30.9199" rx="4.58073" fill="#006400" fill-opacity="0.2"/>
<g clip-path="url(#clip0_1663_54713)">
<path d="M29.1735 14.6326V11.3923C29.1735 9.80031 27.9068 8.49937 26.3284 8.44257V6.45366C26.3284 5.41768 25.4856 4.57485 24.4496 4.57485H19.2771L18.6092 2.71821C18.4388 2.24474 18.0941 1.86641 17.6384 1.65292C17.1828 1.43938 16.6715 1.41662 16.1987 1.58872L6.8124 5.00499C6.34012 5.17687 5.96334 5.52252 5.75141 5.97827C5.53948 6.43402 5.51796 6.94489 5.69086 7.41685L6.06796 8.44617C4.52546 8.54156 3.29956 9.82613 3.29956 11.3923V25.9933C3.29956 27.6213 4.62402 28.9457 6.25198 28.9457H26.2211C27.849 28.9457 29.1735 27.6213 29.1735 25.9933V22.6456C30.0827 22.515 30.7839 21.7312 30.7839 20.7863V16.4919C30.7839 15.5471 30.0827 14.7632 29.1735 14.6326ZM29.1735 20.7863C29.1735 20.9343 29.0531 21.0547 28.9051 21.0547H24.6107C23.2787 21.0547 22.1951 19.9711 22.1951 18.6391C22.1951 17.3071 23.2787 16.2235 24.6107 16.2235H28.9051C29.0531 16.2235 29.1735 16.3439 29.1735 16.4919V20.7863ZM7.20298 6.86287C7.19077 6.82974 7.18525 6.79451 7.18673 6.75923C7.18822 6.72395 7.19668 6.68932 7.21163 6.65733C7.22646 6.62529 7.2475 6.59651 7.27351 6.57265C7.29953 6.54878 7.33002 6.53031 7.36322 6.51829L16.7494 3.10202C16.8406 3.0689 16.9174 3.09354 16.9552 3.1112C16.9929 3.12886 17.061 3.17213 17.0938 3.26338L17.5657 4.5749H17.2028C16.1668 4.5749 15.324 5.41774 15.324 6.45372V8.43989H7.78074L7.20298 6.86287ZM24.718 6.45366V8.43984H16.9344V6.45366C16.9344 6.30567 17.0548 6.18526 17.2028 6.18526H24.4496C24.5976 6.18526 24.718 6.30567 24.718 6.45366ZM26.2211 27.3353H6.25198C5.512 27.3353 4.90997 26.7333 4.90997 25.9933V11.3923C4.90997 10.6523 5.512 10.0502 6.25198 10.0502H26.2211C26.9611 10.0502 27.5631 10.6523 27.5631 11.3923V14.6131H24.6107C22.3907 14.6131 20.5846 16.4192 20.5846 18.6391C20.5846 20.8591 22.3907 22.6651 24.6107 22.6651H27.5631V25.9933C27.5631 26.7333 26.9611 27.3353 26.2211 27.3353Z" fill="#006400"/>
<path d="M24.6106 19.4443C25.0553 19.4443 25.4158 19.0838 25.4158 18.6391C25.4158 18.1944 25.0553 17.8339 24.6106 17.8339C24.1659 17.8339 23.8054 18.1944 23.8054 18.6391C23.8054 19.0838 24.1659 19.4443 24.6106 19.4443Z" fill="#356A99"/>
</g>
<defs>
<clipPath id="clip0_1663_54713">
<rect width="27.4844" height="27.4844" fill="white" transform="translate(3.29956 1.4679)"/>
</clipPath>
</defs>
</svg>
